# xmcd CD database file
#
# Track frame offsets:
#	150
#	23247
#	43932
#	66280
#	91660
#	115082
#	137285
#	159247
#	179375
#	203595
#	231547
#	256680
#	276072
#
# Disc length: 4013 seconds
#
# Revision: 3
# Processed by: cddbd v1.5.2PL0 Copyright (c) Steve Scherf et al.
# Submitted via: CDex 1.70beta2
#
DISCID=a60fab0d
DTITLE=杏里 - OPUS21 DISC1
DYEAR=1995
DGENRE=JPop
TTITLE0=砂浜
TTITLE1=ONE ～愛はふたりの言葉だから～
TTITLE2=霧雨に消えてゆく
TTITLE3=WHO KNOWS MY LONELINESS?
TTITLE4=SHOO-BE DOO-BE MY BOY
TTITLE5=GOOD-NIGHT FOR YOU
TTITLE6=EDGE OF HEAVEN
TTITLE7=LANI ～Heavenly Garden～
TTITLE8=晩夏の恋人たちへ
TTITLE9=SUMMER CANDLES
TTITLE10=MOON IN THE RAIN
TTITLE11=CHRISTMAS CALENDAR
TTITLE12=さよなら シングル・デイズ
EXTD=YEAR: 1995
EXTT0=
EXTT1=
EXTT2=
EXTT3=
EXTT4=
EXTT5=
EXTT6=
EXTT7=
EXTT8=
EXTT9=
EXTT10=
EXTT11=
EXTT12=
PLAYORDER=
